<?xml version="1.0" encoding="utf-8"?>
<!-- Generator: Adobe Illustrator 18.1.1, SVG Export Plug-In . SVG Version: 6.00 Build 0)  -->
<!DOCTYPE svg PUBLIC "-//W3C//DTD SVG 1.1//EN" "http://www.w3.org/Graphics/SVG/1.1/DTD/svg11.dtd">
<svg version="1.1" id="Calque_1" xmlns="http://www.w3.org/2000/svg" xmlns:xlink="http://www.w3.org/1999/xlink" x="0px" y="0px"
	 viewBox="0 0 841.9 595.3" enable-background="new 0 0 841.9 595.3" xml:space="preserve">
<g>
	<path fill="#FFFFFF" d="M122.9,297.5c-0.3,164,132.5,297.2,296.4,297.8c164.8,0.5,297.2-130.8,299.7-292.9
		C721.4,136.5,585.4-0.5,423.4,0C255.9,0.5,123.2,131.7,122.9,297.5z"/>
	<path fill="#7C8289" d="M122.9,297.5c0.3-165.9,133-297,300.5-297.5c162.1-0.5,298,136.5,295.6,302.4
		c-2.4,162.1-134.9,293.4-299.7,292.9C255.4,594.7,122.6,461.5,122.9,297.5z M550.7,376.5c-2.2,4.6-3.3,9.5-6.2,12.8
		c-20.6,21.7-44,40.4-71.9,52.1c-10,4.3-27.1,9.8-31.8,5.2c-6.8-6.8-7.9-22-7.3-33.7c2.7-66,20.4-129.2,36.1-192.7
		c8.7-35,17.4-70,25.2-105.3c3-13.3-0.5-25.8-13.6-32.6c-23.3-12.5-47.2-15.2-70.8,0c-10.6,6.8-20.9,14.4-30.1,23.1
		C311,169.7,258.6,247,212.2,328.7c-19.5,34.2-19,34.5,14.1,56.5c12.5,8.4,19.8,7.3,28.5-5.7c34.7-52.1,79.3-93.9,131.4-127.9
		c13-8.4,12.5-21.7,15.5-33.9c-1.1-1.1-2.2-2.2-3.5-3.3c-24.4,13.8-48.9,27.7-73.3,41.5c6-13.3,12.5-26.1,21.4-36.9
		c26.3-32.6,53.5-64.6,80.9-96.4c4.6-5.4,12.5-8.4,18.7-12.5c1.4,8.7,0.5,14.4-1.1,19.8c-14.1,47.2-29,94.2-42.1,141.7
		c-16.8,61.6-32.3,123.5-29.6,188.1c1.6,35,22.5,52.9,57,48c5.7-0.8,11.4-2.4,17.1-4.1c45.9-14.4,80.3-44,109.4-81.2
		C570.5,405,570.5,399.6,550.7,376.5z M488.8,198.2c1.4,1.6,2.4,3,3.8,4.6c5.2-0.8,10.3-1.4,15.7-2.2c53.2-9,96.4,30.1,88.8,82
		c-3,19.8-9.5,39.6-18.5,57.5c-7.1,14.4-3,23.3,7.3,35.8c5.4-12.8,10.6-23.3,14.4-34.7c10.3-29.3,16.3-59.2,7.6-90.1
		c-14.4-51.8-61.3-70.6-107.5-65.4C496.4,186.2,492.6,193.8,488.8,198.2z"/>
	<path fill="#FFFFFF" d="M550.7,376.5c19.8,23.1,19.8,28.5,5.7,46.4c-29,37.2-63.5,66.8-109.4,81.2c-5.7,1.9-11.4,3.3-17.1,4.1
		c-34.7,4.9-55.6-13-57-48c-2.7-64.6,12.8-126.5,29.6-188.1c13-47.5,28-94.5,42.1-141.7c1.6-5.4,2.4-11.4,1.1-19.8
		c-6.2,4.1-13.8,7.1-18.7,12.5c-27.4,31.8-54.3,63.8-80.9,96.4c-9,10.9-15.5,23.6-21.4,36.9c24.4-13.8,48.9-27.7,73.3-41.5
		c1.1,1.1,2.2,2.2,3.5,3.3c-3,12.2-2.4,25.5-15.5,33.9c-52.1,33.9-96.6,75.7-131.4,127.9c-8.4,12.8-16,13.8-28.5,5.7
		c-33.1-22-33.7-22.3-14.1-56.5c46.7-82,99.1-159.3,168.3-223.7c9.2-8.7,19.5-16,30.1-23.1c23.3-15.2,47.2-12.5,70.8,0
		c13,7.1,16.6,19.5,13.6,32.6c-7.9,35.3-16.6,70.3-25.2,105.3c-15.7,63.5-33.4,126.8-36.1,192.7c-0.5,11.4,0.5,26.6,7.3,33.7
		c4.6,4.6,21.7-1.1,31.8-5.2c28-11.7,51.3-30.4,71.9-52.1C547.4,386,548.5,381.1,550.7,376.5z"/>
	<path fill="#FFFFFF" d="M488.8,198.2c3.8-4.3,7.6-11.9,11.9-12.5c46.1-5.2,93.1,13.6,107.5,65.4c8.4,30.9,2.4,60.8-7.6,90.1
		c-3.8,11.1-9.2,22-14.4,34.7c-10.3-12.5-14.4-21.4-7.3-35.8c9-17.9,15.5-37.7,18.5-57.5c7.9-51.8-35.6-90.9-88.8-82
		c-5.2,0.8-10.3,1.4-15.7,2.2C491.2,201.1,490.2,199.5,488.8,198.2z"/>
</g>
</svg>
