<?xml version="1.0" encoding="utf-8"?>
<!-- Generator: Adobe Illustrator 18.1.1, SVG Export Plug-In . SVG Version: 6.00 Build 0)  -->
<!DOCTYPE svg PUBLIC "-//W3C//DTD SVG 1.1//EN" "http://www.w3.org/Graphics/SVG/1.1/DTD/svg11.dtd">
<svg version="1.1"
	 id="svg3358" xmlns:rdf="http://www.w3.org/1999/02/22-rdf-syntax-ns#" xmlns:dc="http://purl.org/dc/elements/1.1/" xmlns:cc="http://creativecommons.org/ns#" xmlns:svg="http://www.w3.org/2000/svg"
	 xmlns="http://www.w3.org/2000/svg" xmlns:xlink="http://www.w3.org/1999/xlink" x="0px" y="0px" viewBox="7.6 177.3 842.1 445.7"
	 enable-background="new 7.6 177.3 842.1 445.7" xml:space="preserve">
<g id="layer1" transform="translate(0,-602.36218)">
	<path id="path268" fill="#7C8289" d="M282.9,1221.4H246v-146.3h36.9V1221.4z"/>
	<g id="g270" transform="matrix(10.337276,0,0,-10.337276,-861.34511,8446.2018)">
		<g>
			<g id="g272">
				<g id="g278" transform="translate(134.9958,727.2001)">
					<path id="path280" fill="#7C8289" d="M4.5-18.2c-0.2,0.1-1.4,0.8-3.1,0.8c-2.3,0-4-1.6-4-3.7s1.6-3.7,4-3.7
						c1.7,0,2.8,0.7,3.1,0.8v-3.8c-0.5-0.1-1.7-0.5-3.3-0.5c-4.1,0-7.6,2.7-7.6,7.4c0,4.2,3.2,7.4,7.6,7.4c1.7,0,2.9-0.5,3.3-0.5
						V-18.2z"/>
				</g>
				<g id="g282" transform="translate(102.0426,727.2001)">
					<path id="path284" fill="#7C8289" d="M0.2-18.2c-0.2,0.1-1.4,0.8-3.1,0.8c-2.3,0-4-1.6-4-3.7s1.6-3.7,4-3.7
						c1.7,0,2.8,0.7,3.1,0.8v-3.8c-0.5-0.1-1.7-0.5-3.3-0.5c-4,0-7.6,2.7-7.6,7.4c0,4.2,3.2,7.4,7.6,7.4c1.7,0,2.9-0.5,3.3-0.5
						L0.2-18.2z"/>
				</g>
				<g id="g286" transform="translate(144.9274,727.8212)">
					<path id="path288" fill="#7C8289" d="M5.8-18.1c-2.1,0-3.7-1.7-3.7-3.7s1.6-3.7,3.7-3.7s3.7,1.7,3.7,3.7
						C9.4-19.8,7.9-18.1,5.8-18.1 M13.3-21.9c0-4.1-3.2-7.4-7.5-7.4s-7.5,3.3-7.5,7.4s3.2,7.4,7.5,7.4S13.3-17.8,13.3-21.9"/>
				</g>
				<g id="g290" transform="translate(121.5124,727.9413)">
					<path id="path292" fill="#7C8289" d="M2.8-18.1c0,0-1.6,0.5-2.8,0.5c-1.5,0-2.3-0.5-2.3-1.1c0-0.9,1-1.1,1.6-1.4l1.1-0.3
						c2.3-0.8,3.4-2.4,3.4-4.1c0-3.5-3.2-4.8-5.9-4.8C-4-29.3-5.8-29-6-29v3.3c0.3-0.1,1.8-0.6,3.4-0.6c1.8,0,2.6,0.6,2.6,1.4
						c0,0.7-0.7,1.1-1.6,1.4c-0.2,0.1-0.6,0.2-0.8,0.2c-2,0.8-3.7,1.9-3.7,4.3c0,2.6,2,4.4,5.3,4.4c1.7,0,3.4-0.5,3.5-0.5L2.8-18.1z
						"/>
				</g>
				<g id="g294" transform="translate(89.154,744.2304)">
					<path id="path296" fill="#7C8289" d="M-1.5-16c0,1-0.8,1.8-1.8,1.8S-5.1-15-5.1-16v-3.7c0-1,0.8-1.8,1.8-1.8s1.8,0.8,1.8,1.8
						V-16z"/>
				</g>
				<g id="g298" transform="translate(97.7633,748.5409)">
					<path id="path300" fill="#7C8289" d="M-0.4-15.4c0,1-0.8,1.8-1.8,1.8S-4-14.4-4-15.4V-24c0-1,0.8-1.8,1.8-1.8S-0.4-25-0.4-24
						V-15.4z"/>
				</g>
				<g id="g302" transform="translate(106.3727,754.4384)">
					<path id="path304" fill="#7C8289" d="M0.8-14.6c0,1-0.8,1.8-1.8,1.8s-1.8-0.8-1.8-1.8v-18.8c0-1,0.8-1.8,1.8-1.8
						s1.8,0.8,1.8,1.8C0.8-33.4,0.8-14.6,0.8-14.6z"/>
				</g>
				<g id="g306" transform="translate(114.9821,748.5409)">
					<path id="path308" fill="#7C8289" d="M1.9-15.4c0,1-0.8,1.8-1.8,1.8s-1.8-0.8-1.8-1.8V-24c0-1,0.8-1.8,1.8-1.8S1.9-25,1.9-24
						V-15.4z"/>
				</g>
				<g id="g310" transform="translate(123.5817,744.2304)">
					<path id="path312" fill="#7C8289" d="M3-16c0,1-0.8,1.8-1.8,1.8S-0.6-15-0.6-16v-3.7c0-1,0.8-1.8,1.8-1.8S3-20.7,3-19.7V-16z"
						/>
				</g>
				<g id="g314" transform="translate(132.195,748.5409)">
					<path id="path316" fill="#7C8289" d="M4.2-15.4c0,1-0.8,1.8-1.8,1.8s-1.8-0.8-1.8-1.8V-24c0-1,0.8-1.8,1.8-1.8S4.2-25,4.2-24
						V-15.4z"/>
				</g>
				<g id="g318" transform="translate(140.8102,754.4384)">
					<path id="path320" fill="#7C8289" d="M5.3-14.6c0,1-0.8,1.8-1.8,1.8s-1.8-0.8-1.8-1.8v-18.8c0-1,0.8-1.8,1.8-1.8
						s1.8,0.8,1.8,1.8V-14.6z"/>
				</g>
				<g id="g322" transform="translate(149.4235,748.5409)">
					<path id="path324" fill="#7C8289" d="M6.4-15.4c0,1-0.8,1.8-1.8,1.8s-1.8-0.8-1.8-1.8V-24c0-1,0.8-1.8,1.8-1.8S6.4-25,6.4-24
						V-15.4z"/>
				</g>
				<g id="g326" transform="translate(158.0192,744.2304)">
					<path id="path328" fill="#7C8289" d="M7.5-16c0,1-0.8,1.8-1.8,1.8S3.9-15,3.9-16v-3.7c0-1,0.8-1.8,1.8-1.8s1.8,0.8,1.8,1.8V-16
						z"/>
				</g>
			</g>
		</g>
	</g>
</g>
</svg>
