<?xml version="1.0" encoding="utf-8"?>
<!-- Generator: Adobe Illustrator 24.0.3, SVG Export Plug-In . SVG Version: 6.00 Build 0)  -->
<svg version="1.1" id="Calque_1" xmlns="http://www.w3.org/2000/svg" xmlns:xlink="http://www.w3.org/1999/xlink" x="0px" y="0px"
	 viewBox="0 0 362.2 273.4" style="enable-background:new 0 0 362.2 273.4;" xml:space="preserve">
<style type="text/css">
	.st0{fill:#FFFFFF;}
	.st1{fill:#7E838A;}
</style>
<path class="st0" d="M76.5,126.9h10.6v8.4H76.5L76.5,126.9z"/>
<g>
	<path class="st1" d="M10,247.7c1-1.1,2-2.2,3.1-3.3c1-1.2,2.1-2.3,3.1-3.5c1-1.2,2-2.4,2.8-3.3c0.9-1,1.7-2,2.4-2.7h12
		c-2.4,2.7-4.7,5.4-7.1,7.9c-2.2,2.5-4.7,5.1-7.4,7.8c1.5,1.4,2.9,2.9,4.2,4.5c1.5,1.7,2.8,3.5,4.2,5.2c1.3,1.7,2.6,3.6,3.7,5.4
		c1.1,1.9,2.1,3.5,2.8,4.9H22.3c-0.7-1.2-1.6-2.5-2.5-3.8c-0.9-1.5-1.9-2.9-3-4.3c-1-1.5-2.1-2.9-3.3-4.2c-1-1.2-2.1-2.4-3.3-3.3
		v15.6H0v-51.1l10.1-1.6v29.9 M69.2,269.4c-2.2,0.6-4.4,1.1-6.7,1.4c-2.8,0.5-5.7,0.7-8.5,0.6c-2.6,0.1-5.2-0.3-7.7-1.2
		c-3.8-1.4-6.5-4.7-7.2-8.7c-0.5-2.2-0.8-4.4-0.7-6.7v-19.9h10.1v18.7c0,3.2,0.4,5.6,1.2,7.1s2.5,2.2,4.8,2.2c0.8,0,1.6,0,2.4-0.1
		c0.9-0.1,1.5-0.1,2.2-0.2v-27.6h10.1L69.2,269.4 M101.7,252.4c0-6.6-2.4-9.8-7.2-9.8c-1,0-2.1,0.1-3.1,0.4c-0.9,0.2-1.7,0.5-2.5,1
		v18.4c0.5,0.1,1.1,0.1,1.9,0.2c0.7,0,1.6,0.1,2.5,0.1c2.4,0.1,4.8-0.9,6.3-2.8C101.1,257.8,101.8,255.1,101.7,252.4 M112,252.7
		c0.1,2.7-0.4,5.3-1.2,7.8c-0.7,2.2-2,4.2-3.6,5.9c-1.7,1.6-3.7,2.9-5.8,3.8c-2.5,0.9-5.2,1.3-7.9,1.2c-1.2,0-2.5-0.1-3.8-0.2
		s-2.6-0.2-4-0.4c-1.2-0.1-2.5-0.4-3.7-0.6c-1.1-0.2-2.1-0.5-3.1-0.9v-50l10.1-1.6v17.8c1.2-0.5,2.4-0.9,3.6-1.1
		c1.3-0.3,2.6-0.4,4-0.4c2.3,0,4.6,0.4,6.7,1.4c1.9,0.8,3.6,2.1,5,3.7c1.4,1.7,2.4,3.8,3,5.9C111.7,247.6,112,250.1,112,252.7
		 M118,253.1c-0.1-2.8,0.4-5.7,1.5-8.3c0.9-2.2,2.2-4.2,3.8-5.9c1.5-1.6,3.4-2.8,5.4-3.6c2-0.8,4.2-1.3,6.4-1.2
		c4.5-0.2,8.8,1.5,12,4.7c3,3.1,4.5,7.7,4.5,13.6c0,0.7,0,1.3-0.1,2c0,0.6-0.1,1.2-0.1,1.9h-23c0.2,2,1.3,3.8,3,4.9
		c2.1,1.3,4.5,2,6.9,1.9c1.8,0,3.7-0.1,5.4-0.5c1.5-0.3,3-0.7,4.5-1.2l1.4,8.3c-0.5,0.2-1.2,0.5-2.2,0.9c-1,0.3-2,0.5-3.1,0.6
		c-1.2,0.2-2.4,0.4-3.6,0.5c-1.2,0.1-2.6,0.2-3.8,0.2c-2.9,0.1-5.7-0.4-8.4-1.5c-2.2-0.9-4.2-2.2-5.9-3.8c-1.5-1.7-2.7-3.8-3.5-5.9
		C118.4,258.1,118,255.6,118,253.1 M141.9,249.1c0-0.8-0.2-1.7-0.5-2.5c-0.2-0.8-0.6-1.6-1.1-2.2c-1.2-1.5-3-2.3-5-2.2
		c-1,0-2,0.2-3,0.6c-0.8,0.3-1.5,0.8-2,1.5c-0.6,0.7-1,1.4-1.2,2.2c-0.3,0.8-0.5,1.6-0.6,2.5h13.4 M181,243.8
		c-1.1-0.3-2.1-0.5-3.2-0.6c-1.3-0.3-2.6-0.4-4-0.4c-0.8,0-1.6,0.1-2.4,0.2c-0.7,0.1-1.3,0.2-2,0.4v27.3h-10.1v-34
		c2.1-0.7,4.3-1.3,6.4-1.7c2.7-0.6,5.5-0.9,8.3-0.9c0.7,0,1.3,0,2,0.1c0.8,0,1.6,0.1,2.4,0.2c0.7,0.1,1.5,0.2,2.4,0.4
		c0.7,0.1,1.5,0.4,2,0.5L181,243.8 M188.2,236.1c5-1.3,10.1-2,15.2-2c2.6-0.1,5.1,0.3,7.5,1.2c1.9,0.6,3.6,1.8,4.8,3.3
		c1.2,1.5,2,3.3,2.5,5.2c0.5,2.2,0.8,4.4,0.7,6.7v20.2h-10.1v-18.9c0-3.2-0.4-5.6-1.2-6.9s-2.5-2-4.8-2c-0.8,0-1.6,0-2.4,0.1
		c-0.7,0-1.5,0.1-2.2,0.2v27.6h-10L188.2,236.1 M226.6,253.1c-0.1-2.8,0.4-5.7,1.5-8.3c0.9-2.2,2.2-4.2,3.8-5.9
		c1.5-1.6,3.4-2.8,5.4-3.6c2-0.8,4.2-1.3,6.4-1.2c4.5-0.2,8.8,1.5,12,4.7c3,3.1,4.5,7.7,4.5,13.6c0,0.7,0,1.3-0.1,2
		c0,0.6-0.1,1.2-0.1,1.9h-23c0.2,2,1.3,3.8,3,4.9c2.1,1.3,4.5,2,6.9,1.9c1.8,0,3.7-0.1,5.4-0.5c1.5-0.3,3-0.7,4.5-1.2l1.4,8.3
		c-0.5,0.2-1.2,0.5-2.2,0.9c-1,0.3-2,0.5-3.1,0.6c-1.2,0.2-2.4,0.4-3.6,0.5c-1.2,0.1-2.6,0.2-3.8,0.2c-2.9,0.1-5.7-0.4-8.4-1.5
		c-2.2-0.9-4.2-2.2-5.9-3.8c-1.5-1.7-2.7-3.8-3.5-5.9C226.9,258.1,226.6,255.6,226.6,253.1 M250.4,249.1c0-0.8-0.2-1.7-0.5-2.5
		c-0.2-0.8-0.6-1.6-1.1-2.2c-1.2-1.5-3-2.3-5-2.2c-1,0-2,0.2-3,0.6c-0.8,0.3-1.5,0.8-2,1.5c-0.6,0.7-1,1.4-1.2,2.2
		c-0.3,0.8-0.5,1.6-0.6,2.5h13.4 M267.8,226l10.1-1.6v10.5H290v8.4h-12.1v12.6c-0.1,1.8,0.3,3.5,1.1,5.1c0.7,1.2,2.4,1.9,4.6,1.9
		c1.1,0,2.2-0.1,3.3-0.2c1.1-0.2,2.2-0.5,3.2-0.9l1.5,7.9c-1.3,0.6-2.7,1-4.1,1.2c-1.8,0.4-3.7,0.5-5.6,0.5
		c-2.4,0.1-4.7-0.3-6.9-1.1c-1.7-0.7-3.2-1.7-4.3-3.1c-1.1-1.5-2-3.1-2.4-4.9c-0.4-2.1-0.6-4.2-0.6-6.3L267.8,226 M295.2,253.1
		c-0.1-2.8,0.4-5.7,1.5-8.3c0.9-2.2,2.2-4.2,3.8-5.9c1.5-1.6,3.4-2.8,5.4-3.6c2-0.8,4.2-1.3,6.4-1.2c4.5-0.2,8.8,1.5,12,4.7
		c3,3.1,4.5,7.7,4.5,13.6c0,0.7,0,1.3-0.1,2c0,0.6-0.1,1.2-0.1,1.9h-23c0.2,2,1.3,3.8,3,4.9c2.1,1.3,4.5,2,6.9,1.9
		c1.8,0,3.7-0.1,5.4-0.5c1.5-0.3,3-0.7,4.5-1.2l1.4,8.3c-0.5,0.2-1.2,0.5-2.2,0.9c-1,0.3-2,0.5-3.1,0.6c-1.2,0.2-2.4,0.4-3.6,0.5
		c-1.2,0.1-2.6,0.2-3.8,0.2c-2.9,0.1-5.7-0.4-8.4-1.5c-2.2-0.9-4.2-2.2-5.9-3.8c-1.5-1.7-2.7-3.8-3.5-5.9
		C295.5,258.1,295.2,255.6,295.2,253.1 M319,249.1c0-0.8-0.2-1.7-0.5-2.5c-0.2-0.8-0.6-1.6-1.1-2.2c-1.2-1.5-3-2.3-4.9-2.2
		c-1,0-2,0.2-3,0.6c-0.8,0.3-1.5,0.8-2,1.5c-0.6,0.7-1,1.4-1.2,2.2c-0.3,0.8-0.5,1.6-0.6,2.5H319 M346.8,263.3
		c1.3,0.1,2.7-0.1,4-0.5c0.8-0.4,1.2-1.2,1.1-2.1c0-0.9-0.5-1.5-1.5-2.1c-1.4-0.9-3-1.6-4.6-2.1c-1.6-0.6-3.1-1.2-4.3-1.9
		c-1.2-0.6-2.3-1.3-3.2-2.2c-0.9-0.9-1.6-2-2.1-3.2c-0.5-1.4-0.8-2.9-0.7-4.5c-0.1-3.1,1.2-6,3.7-7.9c2.5-2,5.9-3,10.3-3
		c2.1,0,4.2,0.2,6.3,0.6c1.6,0.2,3.2,0.7,4.7,1.2l-1.7,7.9c-1.2-0.4-2.5-0.7-3.8-1.1c-1.5-0.4-3-0.5-4.6-0.5c-3.2,0-4.7,0.9-4.7,2.6
		c0,0.4,0.1,0.8,0.2,1.1c0.2,0.4,0.5,0.8,0.9,1c0.4,0.2,1,0.6,1.6,1c0.7,0.4,1.6,0.6,2.7,1.1c1.9,0.7,3.8,1.5,5.6,2.5
		c1.3,0.6,2.4,1.5,3.3,2.6c0.9,0.8,1.5,1.9,1.7,3.1c0.4,1.3,0.5,2.6,0.5,4c0.2,3.2-1.3,6.2-4,8c-2.6,1.9-6.3,2.7-11.3,2.7
		c-2.7,0.1-5.3-0.2-7.9-0.9c-1.5-0.3-2.9-0.8-4.3-1.4l1.7-8.3c1.7,0.7,3.5,1.2,5.3,1.6C343.4,263.2,345.1,263.3,346.8,263.3"/>
	<path class="st0" d="M72.1,126.5h11v8.8h-11L72.1,126.5z"/>
	<path class="st1" d="M201.2,119.2c-0.3-0.1-0.6-0.1-0.9-0.1c-0.5,0-1,0.2-1.5,0.4c-1.9,0.9-2.7,3.1-1.9,5l0,0l8.9,21.4
		c8.5-5.4,14.9-13.5,18.3-23L201.2,119.2L201.2,119.2z M165.7,122.3c-0.4-1.7-1.9-3-3.7-3c-0.3,0-0.5,0-0.8,0.1l0,0l-22.7,3.8
		c3.4,9.4,9.8,17.4,18.2,22.8l8.8-21.2l-0.1-0.1C165.8,123.9,165.9,123.1,165.7,122.3L165.7,122.3z M184.6,130.6
		c-1-1.9-3.4-2.6-5.2-1.6c-0.7,0.4-1.2,0.9-1.6,1.6h0l-11.1,20.1c8,2.7,16.6,3.2,24.8,1.3c1.5-0.3,3-0.8,4.5-1.2L184.6,130.6
		L184.6,130.6z M219.9,83.8l-17.1,15.3l0,0c-1.6,1.4-1.8,3.9-0.4,5.5c0.5,0.6,1.2,1,1.9,1.2l0,0.1l22.2,6.4
		C227.5,102.4,225.2,92.3,219.9,83.8L219.9,83.8z M188.1,85.5c0.1,2.1,1.9,3.8,4,3.7c0.8,0,1.5-0.3,2.1-0.7l0.1,0L213,75.2
		c-7.1-7-16.4-11.4-26.3-12.7L188.1,85.5L188.1,85.5z M168.2,88.6c1.7,1.3,4.1,0.9,5.4-0.9c0.4-0.6,0.7-1.3,0.7-2.1l0.1,0l1.3-23
		c-1.6,0.2-3.1,0.5-4.7,0.8c-8.2,1.8-15.8,6-21.8,11.9L168.2,88.6L168.2,88.6z M158.1,106c2.1-0.6,3.3-2.7,2.7-4.8
		c-0.2-0.7-0.6-1.4-1.2-1.9l0-0.1l-17.2-15.4c-5.3,8.6-7.5,18.6-6.4,28.6L158.1,106L158.1,106z M174.9,112.7l6.4,3.1l6.3-3.1
		l1.6-6.8l-4.4-5.5h-7.1l-4.4,5.5L174.9,112.7z"/>
	<path class="st1" d="M286.4,126.2l-18.1-78.7c-1-4.1-3.8-7.6-7.6-9.4l-73.3-35c-3.8-1.8-8.3-1.8-12.2,0l-73.3,35
		c-3.8,1.8-6.6,5.3-7.6,9.4l-18.1,78.7c-0.4,2-0.4,4.1,0,6c0.1,0.6,0.3,1.2,0.5,1.8c0.4,1,0.8,1.9,1.4,2.8c0.2,0.4,0.5,0.7,0.8,1.1
		l50.8,63.1c0.2,0.3,0.5,0.5,0.7,0.8c0.8,0.8,1.7,1.6,2.7,2.2c1.2,0.8,2.6,1.4,4,1.7c1.2,0.3,2.4,0.5,3.6,0.5h0.8l80.6,0
		c0.5,0,1,0,1.5-0.1c0.7-0.1,1.4-0.2,2.1-0.4c0.5-0.1,1-0.3,1.4-0.5c0.4-0.1,0.7-0.3,1.1-0.5c0.5-0.3,1-0.5,1.5-0.9
		c1.3-0.8,2.4-1.8,3.4-3l1.5-1.9l49.2-61.2c0.9-1.2,1.7-2.5,2.2-3.9c0.2-0.6,0.4-1.2,0.5-1.8C286.8,130.3,286.8,128.2,286.4,126.2
		L286.4,126.2z M210.3,156.8c0.2,0.6,0.5,1.2,0.7,1.8c-0.4,0.8-0.6,1.7-0.3,2.6c1.1,2.4,2.4,4.8,3.9,7c0.9,1.1,1.6,2.3,2.4,3.5
		c0.2,0.3,0.4,0.8,0.6,1.2c1.3,2.1,0.6,4.8-1.5,6c-2.1,1.3-4.8,0.6-6-1.5c-0.1-0.2-0.3-0.5-0.4-0.8c-0.2-0.3-0.4-0.8-0.5-1.1
		c-0.5-1.3-0.9-2.7-1.3-4c-0.8-2.6-1.8-5-3-7.4c-0.5-0.7-1.3-1.2-2.2-1.4c-0.1-0.2-0.7-1.2-0.9-1.7c-13.1,4.9-27.5,4.9-40.5-0.1
		l-1,1.8c-0.7,0.1-1.4,0.4-1.9,0.9c-1.5,2.5-2.6,5.1-3.4,7.9c-0.3,1.4-0.8,2.7-1.3,4c-0.1,0.3-0.4,0.8-0.5,1.1v0l0,0
		c-0.8,2.3-3.3,3.5-5.6,2.7c-2.3-0.8-3.5-3.3-2.7-5.6c0.1-0.3,0.2-0.5,0.4-0.8c0.2-0.3,0.4-0.9,0.6-1.2c0.7-1.2,1.5-2.4,2.4-3.5
		c1.5-2.2,2.9-4.6,4-7.1c0.1-0.8,0-1.7-0.4-2.5l0.8-1.9c-12-7.1-21-18.3-25.3-31.6l-1.9,0.3c-0.7-0.5-1.6-0.8-2.5-0.9
		c-2.6,0.5-5.2,1.3-7.7,2.3c-1.3,0.6-2.6,1.1-3.9,1.5c-0.3,0.1-0.8,0.2-1.1,0.3c0,0-0.1,0-0.1,0c0,0,0,0-0.1,0
		c-2.3,0.8-4.8-0.5-5.6-2.8c-0.8-2.3,0.5-4.8,2.8-5.6c0.3-0.1,0.5-0.1,0.8-0.2l0.1,0l0,0c0.4-0.1,0.8-0.2,1.2-0.3
		c1.4-0.2,2.8-0.3,4.2-0.3c2.7-0.2,5.3-0.6,7.9-1.3c0.8-0.5,1.4-1.1,1.9-1.9l1.8-0.5c-2-13.9,1.2-28,9-39.6l-1.4-1.3
		c-0.1-0.9-0.4-1.8-0.9-2.5c-2-1.7-4.2-3.3-6.5-4.6c-1.3-0.6-2.5-1.3-3.6-2.1c-0.3-0.2-0.6-0.5-0.9-0.7l-0.1,0
		c-2.1-1.5-2.6-4.4-1.1-6.5c0.9-1,2.2-1.6,3.5-1.5c1.1,0,2.2,0.5,3.1,1.2c0.3,0.2,0.7,0.5,1,0.8c1,1,2,2,2.9,3.1
		c1.8,2,3.8,3.8,5.9,5.3c0.8,0.4,1.7,0.5,2.6,0.3c0.5,0.4,1.1,0.8,1.6,1.1c7.7-8.2,17.7-13.9,28.7-16.4c2.6-0.6,5.3-1,7.9-1.2
		l0.1-1.9c0.7-0.6,1.2-1.4,1.4-2.3c0.1-2.7-0.1-5.3-0.5-8c-0.3-1.4-0.5-2.8-0.6-4.2c0-0.3,0-0.8,0-1.1c0,0,0-0.1,0-0.1
		c-0.2-2.4,1.5-4.6,3.9-4.8s4.6,1.5,4.8,3.9c0,0.3,0,0.6,0,0.9c0,0.4,0,0.9,0,1.2c-0.1,1.4-0.3,2.8-0.6,4.2c-0.4,2.6-0.6,5.3-0.5,8
		c0.2,0.9,0.7,1.7,1.4,2.2c0,0.3,0.1,1.4,0.1,2c13.9,1.3,26.8,7.5,36.4,17.6l1.7-1.2c0.9,0.2,1.8,0.1,2.7-0.3
		c2.1-1.6,4.1-3.4,5.9-5.4c0.9-1.1,1.9-2.1,2.9-3.1c0.3-0.2,0.7-0.5,1-0.8c1.7-1.7,4.5-1.7,6.2,0c1.7,1.7,1.7,4.5,0,6.2
		c-0.2,0.2-0.5,0.4-0.7,0.6c-0.3,0.2-0.7,0.6-1,0.8c-1.2,0.8-2.4,1.5-3.6,2.1c-2.3,1.3-4.5,2.8-6.5,4.6c-0.6,0.7-0.9,1.6-0.8,2.5
		c-0.2,0.2-1.1,1-1.6,1.4c7.8,11.6,11,25.7,9.1,39.5l1.8,0.5c0.4,0.8,1.1,1.5,1.9,1.9c2.6,0.7,5.2,1.1,7.9,1.3
		c1.4,0,2.8,0.1,4.2,0.3c0.4,0.1,0.9,0.2,1.3,0.3c2.4,0.3,4.1,2.5,3.8,4.9c-0.3,2.4-2.5,4.1-4.9,3.8c-0.3,0-0.5-0.1-0.8-0.2l-0.1,0
		c0,0-0.1,0-0.1,0c-0.4-0.1-0.8-0.2-1.1-0.2c-1.3-0.4-2.7-0.9-3.9-1.5c-2.5-1-5-1.8-7.7-2.3c-0.9,0-1.8,0.3-2.5,0.9
		c-0.6-0.1-1.2-0.2-1.9-0.3C231.3,138.4,222.3,149.7,210.3,156.8L210.3,156.8z"/>
</g>
</svg>
