<?xml version="1.0" encoding="utf-8"?>
<!-- Generator: Adobe Illustrator 18.1.1, SVG Export Plug-In . SVG Version: 6.00 Build 0)  -->
<!DOCTYPE svg PUBLIC "-//W3C//DTD SVG 1.1//EN" "http://www.w3.org/Graphics/SVG/1.1/DTD/svg11.dtd">
<svg version="1.1" id="Calque_1" xmlns="http://www.w3.org/2000/svg" xmlns:xlink="http://www.w3.org/1999/xlink" x="0px" y="0px"
	 viewBox="0 0 841.9 595.3" enable-background="new 0 0 841.9 595.3" xml:space="preserve">
<g>
	<path fill="#7C8289" d="M0,89.5c1.3-5.3,1.9-10.8,3.8-15.8c9.4-25,27.4-40,53.8-44.6c3.8-0.7,7.8-0.9,11.6-0.9
		c234.6,0,469.1,0,703.6,0c33.3,0,60,20.9,67.5,53.3c1.1,4.9,1.5,10,1.5,15c0.1,134.2,0.1,268.4,0.1,402.6
		c0,32.5-21.6,59.5-53.4,66.6c-4.9,1.1-10,1.4-15,1.4c-235.1,0.1-470.1,0.1-705.2,0.1c-33,0-60-21.9-67-53.9
		c-0.5-2.4-0.9-4.8-1.3-7.2C0,367.1,0,228.3,0,89.5z M420.9,62c-117.4,0-234.8,0-352.2,0c-10.3,0-19,3.3-26.1,10.7
		c-6.6,7-9,15.6-9,25c0.1,133.4,0,266.8,0,400.2c0,1.5,0.1,3,0.1,4.5c0.7,9.9,5,17.9,12.8,24c6.6,5.2,14.4,7.1,22.8,7.1
		c234.4,0,468.7,0,703.1,0c1.2,0,2.5,0,3.7-0.1c6.8-0.4,13-2.4,18.5-6.5c9.8-7.3,13.8-17.3,13.8-29.2c0-90.6,0-181.2,0-271.9
		c0-42.7,0-85.4,0-128.1c0-6.6-1-13.1-4.5-18.8c-6.9-11.5-17.2-17-30.6-17C655.8,62,538.3,62,420.9,62z"/>
	<path fill="#7C8289" d="M286.3,276c4.3-5.8,8.5-11.4,12.6-16.9c23.3-31.3,46.6-62.6,69.9-93.9c1.2-1.7,2.5-2.3,4.6-2.3
		c20.3,0.1,40.7,0.1,61,0.1c1.1,0,2.1,0,3.3,0c0,89.9,0,179.5,0,269.2c-22.3,0-44.6,0-67.1,0c0-59.4,0-118.8,0-178.2
		c-0.2-0.1-0.4-0.1-0.6-0.3c-27.8,37-55.6,74-83.6,111.2c-28-37.3-55.9-74.3-83.7-111.4c-0.1,0.1-0.4,0.1-0.5,0.1
		c0,59.4,0,118.8,0,178.4c-22.5,0-44.8,0-67.2,0c0-89.7,0-179.3,0-269.3c0.9,0,1.8,0,2.8,0c20.6,0,41.2,0,61.8-0.1
		c1.9,0,3,0.6,4.2,2.1c26.9,36.3,54,72.6,80.9,108.8C285,274.5,285.6,275.1,286.3,276z"/>
	<path fill="#7C8289" d="M623,432.3c-39.2-44.8-78.3-89.5-117.8-134.7c28.4,0,56.1,0,84.1,0c0-45.1,0-89.7,0-134.6
		c22.6,0,44.8,0,67.4,0c0,44.8,0,89.5,0,134.5c28,0,55.7,0,84.3,0C701.4,342.9,662.3,387.6,623,432.3z"/>
</g>
</svg>
