<?xml version="1.0" encoding="utf-8"?>
<!-- Generator: Adobe Illustrator 24.0.3, SVG Export Plug-In . SVG Version: 6.00 Build 0)  -->
<svg version="1.1" id="Layer_1" xmlns="http://www.w3.org/2000/svg" xmlns:xlink="http://www.w3.org/1999/xlink" x="0px" y="0px"
	 viewBox="0 0 485.5 254" style="enable-background:new 0 0 485.5 254;" xml:space="preserve">
<style type="text/css">
	.st0{fill:#7F848B;}
</style>
<g>
	<g>
		<path class="st0" d="M0,169.6h34.2c16.2,0,27.2,7.9,27.2,23.1c0,12.4-8.5,19.9-16.7,22.5c2.5,2.1,4.3,4.9,5.8,7.9
			c3.4,7,5.8,14.8,13,14.8c1.8,0,3.3-0.6,3.3-0.6l-1.6,14.6c0,0-4.4,1.1-8.2,1.1c-9.8,0-15.5-3.8-21.3-17
			c-2.5-5.9-5.9-16.2-10.5-16.2h-4.7v32.8H0V169.6z M20.5,184.5v20.4h7.4c5.9,0,12.8-1.8,12.8-10.7c0-7.3-4.7-9.7-10.3-9.7H20.5z
			 M89.2,169.6H110l28,83h-20.8l-5.2-15.7H84.3l-5,15.7h-18L89.2,169.6z M89.2,221.6H107l-5.7-17.5c-2-5.9-2.8-14.3-2.8-14.3H98
			c0,0-1.2,8.5-3.1,14.1L89.2,221.6z M138.9,252.6h16.9v-39.9c0-4.5-0.6-10.1-1-14.8h0.5c1.7,4.4,3.9,9.8,6,13.5l22.6,41.1h21.5v-83
			h-16.9v39.9c0,4.8,0.6,11.4,0.9,16.1h-0.5c-2-4.9-4.4-11.2-6.3-14.8l-21.8-41.2h-22v83.1H138.9z M209.8,210.5
			c0,30.3,14.5,43.5,37,43.5c22.1,0,34.3-12.4,33-29.3l-18-1.8c1.5,10.8-5.4,16.1-13.9,16.1c-9,0-16.9-5.8-16.9-28.4
			c0-21.4,7.3-28,16.2-28c9.3,0,14.5,5.3,12.4,18.5l19.2-1.7c2.7-18-7-31.2-31.2-31.2C224.7,168.1,209.8,180.5,209.8,210.5
			 M284,252.6h20.5v-35.2h25.2v35.2h20.5v-83h-20.5V201h-25.2v-31.4H284V252.6z M358.5,252.6h56.2v-15.3H379v-19.4h28.9v-15.3H379
			v-17.8h34.4v-15.3h-55v83.1H358.5z M418.7,169.6h34.2c16.2,0,27.2,7.9,27.2,23.1c0,12.4-8.5,19.9-16.7,22.5
			c2.5,2.1,4.3,4.9,5.8,7.9c3.4,7,5.8,14.8,13,14.8c1.8,0,3.3-0.6,3.3-0.6l-1.6,14.6c0,0-4.4,1.1-8.2,1.1c-9.8,0-15.5-3.8-21.3-17
			c-2.5-5.9-5.9-16.2-10.5-16.2h-4.7v32.8h-20.5L418.7,169.6L418.7,169.6z M439.2,184.5v20.4h7.4c5.9,0,12.8-1.8,12.8-10.7
			c0-7.3-4.7-9.7-10.3-9.7H439.2z"/>
		<g>
			<path class="st0" d="M391.6,30.8l-3.2-19.4c-1-6.2-3.5-11.3-5.4-11.3s-3.5,5.2-3.5,11.5v5.1c0,6.3-5.2,11.5-11.5,11.5h-5.1
				c-0.4,0-0.7,0-1.1,0v13.9c0.4,0,0.7,0,1.1,0H382C388.3,42.1,392.6,37,391.6,30.8"/>
			<path class="st0" d="M345.9,14.4H315c-0.3,0-0.5,0-0.8,0h-31.8c-0.4,0-0.7,0-1.1,0.1v-3c0-6.3-1.6-11.5-3.5-11.5
				s-4.4,5.1-5.4,11.3l-3.2,19.4c-1,6.2,3.3,11.3,9.6,11.3h19.1c2,0,3.8-0.3,5.4-0.8c-0.6,3.3-3.5,5.7-6.9,5.7h-26.8
				c-4.3,0-7.6-3.9-6.9-8.2l2.7-16.3c0.7-4.3-2.6-8.2-6.9-8.2H125.4c-2.8,0-5.3,1.7-6.4,4.1L94,56.7c-0.4,0.6-0.4,1.5,0.1,2.1
				l4.9,5.7c0.6,0.7,1.7,0.8,2.4,0.2l17-13.4v81.6c0,3.9,3.1,7,7,7h37.8c3.9,0,7-3.1,7-7v-28.4c0-3.9,3.1-7,7-7h94.4
				c3.9,0,7,3.1,7,7v28.4c0,3.9,3.1,7,7,7h37.8c3.9,0,7-3.1,7-7v-30.5h-20.1c-6.3,0-11.5-5.2-11.5-11.5V71.3c0-3.7,1.8-7.1,4.6-9.2
				v23.4c0,6.3,5.2,11.5,11.5,11.5h30.9c6.3,0,11.5-5.2,11.5-11.5V25.9C357.3,19.6,352.2,14.4,345.9,14.4"/>
		</g>
	</g>
</g>
</svg>
